<svg xmlns="http://www.w3.org/2000/svg" version="1.1" xmlns:xlink="http://www.w3.org/1999/xlink" xmlns:svgjs="http://svgjs.dev/svgjs" width="1000" height="1125" viewBox="0 0 1000 1125"><g transform="matrix(1,0,0,1,0,0)"><svg viewBox="0 0 320 360" data-background-color="#ffffff" preserveAspectRatio="xMidYMid meet" height="1125" width="1000" xmlns="http://www.w3.org/2000/svg" xmlns:xlink="http://www.w3.org/1999/xlink"><g id="tight-bounds" transform="matrix(1,0,0,1,0,0)"><svg viewBox="0 0 320 360" height="360" width="320"><g><svg></svg></g><g><svg viewBox="0 0 320 360" height="360" width="320"><g><path xmlns="http://www.w3.org/2000/svg" d="M297.491 100.645c-12.426-21.51-112.674-79.355-137.491-79.355-24.817 0-125.028 57.845-137.491 79.355-11.591 20.02-11.591 138.726 0 158.746 12.463 21.474 112.674 79.319 137.491 79.319 24.817 0 125.064-57.845 137.491-79.355 11.591-20.02 11.591-138.69 0-158.71zM309.481 93.705c-14.461-24.998-119.469-86.295-149.481-86.295-30.012 0-135.02 61.297-149.481 86.295-14.025 24.199-14.025 148.391 0 172.59 14.461 24.998 119.469 86.295 149.481 86.295 30.012 0 135.02-61.297 149.481-86.259 14.025-24.235 14.025-148.427 0-172.626zM300.906 261.353c-12.753 22.055-115.472 81.317-140.906 81.318-25.434 0-128.153-59.298-140.906-81.354-11.881-20.529-11.881-142.178 0-162.707 12.753-22.019 115.472-81.281 140.906-81.281 25.434 0 128.153 59.298 140.906 81.318 11.881 20.529 11.881 142.178 0 162.706z" fill="#4d7e3e" fill-rule="nonzero" stroke="none" stroke-width="1" stroke-linecap="butt" stroke-linejoin="miter" stroke-miterlimit="10" stroke-dasharray="" stroke-dashoffset="0" font-family="none" font-weight="none" font-size="none" text-anchor="none" style="mix-blend-mode: normal" data-fill-palette-color="tertiary"></path></g><g transform="matrix(1,0,0,1,48,114.73771626297577)"><svg viewBox="0 0 224 130.52456747404847" height="130.52456747404847" width="224"><g><svg viewBox="0 0 224 130.52456747404847" height="130.52456747404847" width="224"><g><svg viewBox="0 0 224 130.52456747404847" height="130.52456747404847" width="224"><g><svg viewBox="0 0 224 130.52456747404847" height="130.52456747404847" width="224"><g><svg viewBox="0 0 224 130.52456747404847" height="130.52456747404847" width="224"><g><svg viewBox="0 0 224 130.52456747404847" height="130.52456747404847" width="224"><g transform="matrix(1,0,0,1,0,0)"><svg width="224" viewBox="1.2999999523162842 -36.04999923706055 72.25 42.099998474121094" height="130.52456747404847" data-palette-color="#ffffff"><path d="M24.55 6.05L24.55 6.05Q23.4 6.05 21.88 4.73 20.35 3.4 18.7 1.25 17.05-0.9 15.45-3.45 13.85-6 12.43-8.6 11-11.2 10.05-13.25L10.05-13.25Q8.7-8.55 7.45-4 6.2 0.55 5.05 4.4L5.05 4.4Q3.7 4.4 2.5 3.63 1.3 2.85 1.3 1.6L1.3 1.6Q1.3 1.05 1.55 0.3 1.8-0.45 2-1.15L2-1.15Q3.4-5.35 4.55-8.8 5.7-12.25 6.78-15.25 7.85-18.25 8.97-21.2 10.1-24.15 11.43-27.3 12.75-30.45 14.4-34.2L14.4-34.2Q12.4-33.85 10.9-33.18 9.4-32.5 8.45-31.98 7.5-31.45 7.15-31.45L7.15-31.45Q6.95-31.45 6.48-31.75 6-32.05 5.65-32.48 5.3-32.9 5.3-33.2L5.3-33.2Q6.7-33.75 8.53-34.4 10.35-35.05 12.55-35.52 14.75-36 17.1-36L17.1-36Q19.3-36 21.65-35.48 24-34.95 26-33.8 28-32.65 29.2-30.83 30.4-29 30.4-26.45L30.4-26.45Q30.4-24.05 29.33-22.33 28.25-20.6 26.48-19.4 24.7-18.2 22.6-17.45 20.5-16.7 18.35-16.3 16.2-15.9 14.43-15.75 12.65-15.6 11.55-15.55L11.55-15.55Q13.15-13 14.65-10.55 16.15-8.1 17.88-5.7 19.6-3.3 21.93-0.88 24.25 1.55 27.45 4.05L27.45 4.05Q27.2 4.9 26.28 5.48 25.35 6.05 24.55 6.05ZM11.1-16.85L11.1-16.85Q13.85-17 16.6-17.73 19.35-18.45 21.6-19.73 23.85-21 25.2-22.93 26.55-24.85 26.55-27.45L26.55-27.45Q26.55-30.1 25.25-31.63 23.95-33.15 21.9-33.8 19.85-34.45 17.6-34.5L17.6-34.5Q15.9-31.1 14.25-26.48 12.6-21.85 11.1-16.85ZM44.95 4.35L44.95 4.35Q43.6 3.6 43.22 2.8 42.85 2 42.85 1.4L42.85 1.4Q42.85 0.05 43.85-2.27 44.85-4.6 46.52-7.58 48.2-10.55 50.3-13.8L50.3-13.8Q48.65-13.9 47.27-13.95 45.9-14 44.15-14L44.15-14 43-14Q43.65-15.7 45.12-16.38 46.6-17.05 48.6-17.05L48.6-17.05Q49.45-17.05 50.37-16.95 51.3-16.85 52.3-16.75L52.3-16.75Q54.8-20.4 57.3-23.75 59.8-27.1 62.02-29.75 64.25-32.4 65.9-34L65.9-34Q68-36.05 69.05-36.05L69.05-36.05Q69.7-36.05 70.5-35.55 71.3-35.05 72.2-34.25L72.2-34.25Q71.7-33.85 70.92-32.18 70.15-30.5 69.27-27.95 68.4-25.4 67.52-22.35 66.65-19.3 65.95-16.18 65.25-13.05 64.82-10.2 64.4-7.35 64.4-5.15L64.4-5.15Q64.4-3.2 64.8-2.2 65.2-1.2 66.2-1.2L66.2-1.2Q67.4-1.2 69.07-2.98 70.75-4.75 72.8-8.65L72.8-8.65 73.55-7.85Q72.05-3.75 69.62-1.15 67.2 1.45 64.5 1.45L64.5 1.45Q62.2 1.45 61.22-0.53 60.25-2.5 60.25-5.95L60.25-5.95Q60.25-7.25 60.42-8.85 60.59-10.45 60.95-12.55L60.95-12.55Q58.75-12.9 57.02-13.1 55.3-13.3 53.75-13.5L53.75-13.5Q51.35-9.25 49.1-4.67 46.85-0.1 44.95 4.35ZM61.4-14.75L61.4-14.75Q62.09-17.85 63.02-20.98 63.95-24.1 64.97-26.98 66-29.85 66.95-32.1L66.95-32.1Q65.45-30.95 63.52-28.65 61.59-26.35 59.5-23.15 57.4-19.95 55.25-16.2L55.25-16.2Q56.8-15.85 58.35-15.48 59.9-15.1 61.4-14.75Z" opacity="1" transform="matrix(1,0,0,1,0,0)" fill="#ffffff" class="undefined-text-0" data-fill-palette-color="quaternary" id="text-0"></path></svg></g></svg></g></svg></g></svg></g><g></g></svg></g></svg></g></svg></g></svg></g><defs></defs></svg><rect width="320" height="360" fill="none" stroke="none" visibility="hidden"></rect></g></svg></g></svg>